Plot: When Abigail and Parker return from New York City to visit their home town, they 
discover that their best friend Rachel is a bridesmaid in the wedding of their childhood 
friend, Caitlyn, and Tony, who was Rachel’s boyfriend until Caitlyn interfered. Abigail 
and Parker decide to run some interference of their own. They manipulate Caitlyn and 
become bridesmaids as well so that they and Rachel can sabotage the wedding from the 
inside. With help from a police detective who happens to be a groomsman, the girls 
strive to ruin Caitlyn’s wedding while dodging her controlling mother and hopefully 
reuniting Tony and Rachel.

Genre: Comedy | Romance
IMDB rating: 6.2/10
Directed by: James Hayman
Starring: Raven-Symoné , Joanna Garcia-Swisher , Beth Broderick

Release Name: Revenge.Of.The.Bridesmaids.2010.DVDRip.XviD-IGUANA
Size: 700 MB
Video: XviD | 512×384 | 985 kbps | 23.976
Audio: English | MP3 | 128 kbps
Runtime: 1h 26mn

Format : AVI
Format/Info : Audio Video Interleave
File size : 697 MiB
Duration : 1h 26mn
Overall bit rate : 1 121 Kbps
Writing application : VirtualDubMod 1.5.10.2 (build 2540/release)
Writing library : VirtualDubMod build 2540/release

Video
ID : 0
Format : MPEG-4 Visual
Format profile : Advanced Simple@L5
Format settings, BVOP : Yes
Format settings, QPel : No
Format settings, GMC : No warppoints
Format settings, Matrix : Default (H.263)
Muxing mode : Packed bitstream
Codec ID : XVID
Codec ID/Hint : XviD
Duration : 1h 26mn
Bit rate : 985 Kbps
Width : 512 pixels
Height : 384 pixels
Display aspect ratio : 4:3
Frame rate : 23.976 fps
Color space : YUV
Chroma subsampling : 4:2:0
Bit depth : 8 bits
Scan type : Progressive
Bits/(Pixel*Frame) : 0.209
Stream size : 613 MiB (88%)
Writing library : XviD 1.2.1 (UTC 2008-12-04)

Audio
ID : 1
Format : MPEG Audio
Format version : Version 1
Format profile : Layer 3
Mode : Joint stereo
Mode extension : MS Stereo
Codec ID : 55
Codec ID/Hint : MP3
Duration : 1h 26mn
Bit rate mode : Variable
Bit rate : 128 Kbps
Channel(s) : 2 channels
Sampling rate : 48.0 KHz
Stream size : 76.2 MiB (11%)
Alignment : Aligned on interleaves
Interleave, duration : 24 ms (0.58 video frame)
Interleave, preload duration : 253 ms
Writing library : LAME3.90.
Encoding settings : -m j -V 4 -q 2 -lowpass 17.6 --abr 128


iNFO:
 
http://1337x.org/nfo-196336.png